<svg id="Layer_1" enable-background="new 0 0 100 100" viewBox="0 0 100 100" xmlns="http://www.w3.org/2000/svg"><g fill="#00adf6"><path d="m49.0206184 3.4793775h-37.196888c-5.1025977 0-9.3237286 4.191782-9.3237286 9.2943201v74.4329987c0 4.8478928 3.8098078 8.8732529 8.5597839 9.2747116v.0392151h8.8927994v-27.9319847h20.9391785v27.9319839h17.4525833v-83.7469243c.000002-5.1025386-4.2211284-9.2943204-9.3237285-9.2943204zm-27.9025669 43.4062579h-6.199502v-6.1995621h6.199502zm0-12.4089279h-6.199502v-6.1993217h6.199502zm0-12.3988839h-6.199502v-6.2093658h6.199502zm12.4087467 24.8078118h-6.199501v-6.1995621h6.199501zm0-12.4089279h-6.199501v-6.1993217h6.199501zm0-12.3988839h-6.199501v-6.2093658h6.199501zm12.4087449 24.8078118h-6.2092438v-6.1995621h6.2092438zm0-12.4089279h-6.2092438v-6.1993217h6.2092438zm0-12.3988839h-6.2092438v-6.2093658h6.2092438z"/><path d="m88.2056808 40.6860733h-26.149498v55.834549h26.149498c5.1025391 0 9.2943192-4.2113876 9.2943192-9.3139267v-37.2066956c0-5.1025391-4.1917801-9.3139267-9.2943192-9.3139267zm-12.565483 30.0277481h-6.199501v-6.1993179h6.199501zm0-12.3988838h-6.199501v-6.209362h6.199501zm12.4087448 12.3988838h-6.2092438v-6.1993179h6.2092438zm0-12.3988838h-6.2092438v-6.209362h6.2092438z"/></g></svg>