<svg enable-background="new 0 0 3872.98 3872.98" viewBox="0 0 3872.98 3872.98" xmlns="http://www.w3.org/2000/svg" xmlns:xlink="http://www.w3.org/1999/xlink"><linearGradient id="SVGID_1_" gradientUnits="userSpaceOnUse" x1="49.297" x2="3827.782" y1="53.074" y2="3831.559"><stop offset="0" stop-color="#f0e904"/><stop offset="1" stop-color="#cf3393"/></linearGradient><g id="Layer_1"><circle clip-rule="evenodd" cx="1938.54" cy="1942.32" fill="url(#SVGID_1_)" fill-rule="evenodd" r="1889.26"/><g><g><path clip-rule="evenodd" d="m2964.6 2701.64h-243.4c-23.83 0-43.17-19.34-43.17-43.17s19.34-43.17 43.17-43.17h243.4c23.83 0 43.17 19.34 43.17 43.17s-19.34 43.17-43.17 43.17z" fill="#fff" fill-rule="evenodd"/></g><g><path clip-rule="evenodd" d="m2964.6 2305.82h-243.4c-23.83 0-43.17-19.34-43.17-43.17s19.34-43.17 43.17-43.17h243.4c23.83 0 43.17 19.34 43.17 43.17s-19.34 43.17-43.17 43.17z" fill="#fff" fill-rule="evenodd"/></g><g><path clip-rule="evenodd" d="m2413.64 2701.57h-310.62c-239.34 0-434.5-194.09-434.5-434.43v-512c0-49.6-40.32-89.91-89.91-89.91h-115.17c-23.83 0-43.17-19.34-43.17-43.17s19.34-43.17 43.17-43.17h115.1c97.19 0 176.25 79.07 176.25 176.25v512c0 192.24 155.85 348.16 348.16 348.16h310.62c23.83 0 43.17 19.34 43.17 43.17s-19.26 43.1-43.1 43.1z" fill="#fff" fill-rule="evenodd"/></g><g><path clip-rule="evenodd" d="m2413.64 2305.82h-165.84c-101.19 0-183.53-82.35-183.53-183.53v-504.79c0-192.31-155.92-348.16-348.16-348.16h-252.75c-23.83 0-43.17-19.34-43.17-43.17s19.34-43.17 43.17-43.17h252.75c240.41 0 434.5 195.17 434.5 434.5v504.79c0 53.59 43.6 97.12 97.19 97.12h165.84c23.83 0 43.17 19.34 43.17 43.17.01 23.9-19.33 43.24-43.17 43.24z" fill="#fff" fill-rule="evenodd"/></g><g><path clip-rule="evenodd" d="m1155.88 1269.41h-243.4c-23.83 0-43.17-19.34-43.17-43.17s19.34-43.17 43.17-43.17h243.4c23.83 0 43.17 19.34 43.17 43.17s-19.34 43.17-43.17 43.17z" fill="#fff" fill-rule="evenodd"/></g><g><path clip-rule="evenodd" d="m1155.88 1665.16h-243.4c-23.83 0-43.17-19.34-43.17-43.17s19.34-43.17 43.17-43.17h243.4c23.83 0 43.17 19.34 43.17 43.17s-19.34 43.17-43.17 43.17z" fill="#fff" fill-rule="evenodd"/></g><g><path clip-rule="evenodd" d="m1309.65 1803.45c-108.61 0-196.95-88.34-196.95-196.95v-364.78c0-108.61 88.34-196.95 196.95-196.95s196.95 88.34 196.95 196.95v364.78c.01 108.61-88.34 196.95-196.95 196.95zm0-672.34c-61.01 0-110.6 49.6-110.6 110.61v364.78c0 61.01 49.59 110.61 110.6 110.61 61.01 0 110.61-49.6 110.61-110.61v-364.78c0-61.01-49.67-110.61-110.61-110.61z" fill="#fff" fill-rule="evenodd"/></g><g><path clip-rule="evenodd" d="m2567.42 2839.86c-108.61 0-196.95-88.34-196.95-196.95v-364.78c0-108.61 88.34-196.95 196.95-196.95s196.95 88.34 196.95 196.95v364.78c0 108.61-88.34 196.95-196.95 196.95zm0-672.34c-61.01 0-110.61 49.59-110.61 110.61v364.78c0 61.01 49.59 110.61 110.61 110.61 61.01 0 110.6-49.6 110.6-110.61v-364.78c.01-60.94-49.59-110.61-110.6-110.61z" fill="#fff" fill-rule="evenodd"/></g><g><path clip-rule="evenodd" d="m818.21 1766.84c-75.78 0-137.37-61.65-137.37-137.37v-410.74c0-75.71 61.65-137.36 137.37-137.36 75.71 0 137.37 61.65 137.37 137.36v410.67c.07 75.79-61.59 137.44-137.37 137.44zm0-599.12c-28.12 0-51.02 22.91-51.02 51.02v410.67c0 28.12 22.9 51.02 51.02 51.02s51.02-22.91 51.02-51.02v-410.67c0-28.11-22.83-51.02-51.02-51.02z" fill="#fff" fill-rule="evenodd"/></g><g><path clip-rule="evenodd" d="m3058.87 2803.25c-75.79 0-137.37-61.65-137.37-137.37v-410.67c0-75.78 61.65-137.37 137.37-137.37 75.71 0 137.37 61.58 137.37 137.37v410.67c-.01 75.72-61.66 137.37-137.37 137.37zm0-599.05c-28.12 0-51.02 22.91-51.02 51.02v410.67c0 28.12 22.91 51.02 51.02 51.02 28.12 0 51.02-22.91 51.02-51.02v-410.67c0-28.18-22.91-51.02-51.02-51.02z" fill="#fff" fill-rule="evenodd"/></g><g><path clip-rule="evenodd" d="m1548.78 1497.82c-8.21-21.55-1.78-46.6 15.98-61.37 17.91-14.84 44.31-16.48 63.87-3.92 18.69 11.99 28.47 34.89 23.9 56.66-4.57 21.76-22.19 38.89-44.17 42.6-23.33 4.57-50.16-9.28-59.58-33.97z" fill="#fff" fill-rule="evenodd"/></g><g><path clip-rule="evenodd" d="m1692.92 1389.36c-8.2-21.55-1.78-46.6 15.99-61.37 17.91-14.84 44.31-16.48 63.87-3.92 18.7 11.99 28.47 34.89 23.9 56.66s-22.19 38.89-44.17 42.6c-25.55 4.49-50.67-10.78-59.59-33.97z" fill="#fff" fill-rule="evenodd"/></g><g><path clip-rule="evenodd" d="m1861.68 1497.82c-8.21-21.55-1.78-46.6 15.99-61.37 17.91-14.84 44.31-16.48 63.87-3.92 18.7 11.99 28.47 34.89 23.9 56.66-4.57 21.76-22.19 38.89-44.17 42.6-23.12 4.64-50.09-9.21-59.59-33.97z" fill="#fff" fill-rule="evenodd"/></g><g><path clip-rule="evenodd" d="m1913.56 1663.66c-8.21-21.55-1.79-46.6 15.98-61.37 17.91-14.84 44.31-16.48 63.94-3.92 18.69 11.99 28.47 34.89 23.91 56.66-4.57 21.76-22.19 38.89-44.17 42.6-26.26 4.35-50.88-11.06-59.66-33.97z" fill="#fff" fill-rule="evenodd"/></g><g><path clip-rule="evenodd" d="m1921.05 1845.77c-8.2-21.55-1.78-46.6 15.99-61.37 17.91-14.84 44.31-16.48 63.94-3.92 18.69 11.99 28.47 34.89 23.9 56.66-4.57 21.76-22.19 38.89-44.17 42.6-23.83 4.56-50.31-9.57-59.66-33.97z" fill="#fff" fill-rule="evenodd"/></g><g><path clip-rule="evenodd" d="m1921.05 2031.94c-8.2-21.55-1.78-46.6 15.99-61.37 17.91-14.84 44.31-16.48 63.94-3.92 18.69 11.99 28.47 34.89 23.9 56.66s-22.19 38.89-44.17 42.6c-26.26 4.35-50.88-11.06-59.66-33.97z" fill="#fff" fill-rule="evenodd"/></g><g><path clip-rule="evenodd" d="m1929.26 2218.04c-8.21-21.55-1.78-46.6 15.99-61.37 17.91-14.84 44.31-16.49 63.86-3.92 18.7 11.99 28.47 34.89 23.91 56.66-4.57 21.77-22.19 38.89-44.17 42.6-23.34 4.57-50.17-9.27-59.59-33.97z" fill="#fff" fill-rule="evenodd"/></g><g><path clip-rule="evenodd" d="m2027.81 2367.47c-8.21-21.55-1.78-46.6 15.99-61.37 17.91-14.84 44.31-16.48 63.94-3.93 18.7 11.99 28.47 34.9 23.91 56.66-4.57 21.76-22.19 38.89-44.17 42.6-26.28 4.36-50.9-11.05-59.67-33.96z" fill="#fff" fill-rule="evenodd"/></g><g><path clip-rule="evenodd" d="m2222.47 2408.29c-8.2-21.55-1.78-46.6 15.99-61.37 17.91-14.84 44.31-16.48 63.94-3.92 18.7 11.99 28.47 34.89 23.9 56.66-4.57 21.76-22.19 38.89-44.17 42.6-23.26 4.56-50.17-9.14-59.66-33.97z" fill="#fff" fill-rule="evenodd"/></g><g><path clip-rule="evenodd" d="m2152.97 2546.37c-8.21-21.55-1.79-46.6 15.98-61.37 17.91-14.84 44.31-16.48 63.94-3.93 18.7 11.99 28.47 34.89 23.91 56.66-4.57 21.76-22.19 38.89-44.17 42.6-26.26 4.35-50.88-11.06-59.66-33.96z" fill="#fff" fill-rule="evenodd"/></g><g><path clip-rule="evenodd" d="m1960.02 2516.82c-8.21-21.55-1.78-46.6 15.99-61.37 17.91-14.84 44.31-16.48 63.94-3.93 18.7 11.99 28.47 34.89 23.9 56.66-4.57 21.76-22.19 38.89-44.17 42.6-26.27 4.36-50.89-11.05-59.66-33.96z" fill="#fff" fill-rule="evenodd"/></g><g><path clip-rule="evenodd" d="m1841.85 2367.47c-8.21-21.55-1.78-46.6 15.99-61.37 17.91-14.84 44.31-16.48 63.94-3.93 18.7 11.99 28.47 34.9 23.9 56.66s-22.19 38.89-44.17 42.6c-26.27 4.36-50.89-11.05-59.66-33.96z" fill="#fff" fill-rule="evenodd"/></g><g><path clip-rule="evenodd" d="m1787.62 2143.83c-8.21-21.55-1.78-46.6 15.98-61.37 17.91-14.84 44.32-16.48 63.94-3.92 18.7 11.99 28.47 34.89 23.91 56.66-4.57 21.76-22.19 38.89-44.17 42.6-23.84 4.56-50.32-9.56-59.66-33.97z" fill="#fff" fill-rule="evenodd"/></g><g><path clip-rule="evenodd" d="m1787.62 1961.8c-8.21-21.55-1.78-46.6 15.98-61.37 17.91-14.84 44.32-16.49 63.94-3.92 18.7 11.99 28.47 34.89 23.91 56.66-4.57 21.77-22.19 38.89-44.17 42.6-23.84 4.56-50.32-9.57-59.66-33.97z" fill="#fff" fill-rule="evenodd"/></g><g><path clip-rule="evenodd" d="m1793.75 1779.76c-8.21-21.55-1.78-46.6 15.98-61.37 17.91-14.84 44.32-16.48 63.94-3.93 18.7 11.99 28.47 34.9 23.9 56.66s-22.19 38.89-44.17 42.6c-26.25 4.36-50.87-11.05-59.65-33.96z" fill="#fff" fill-rule="evenodd"/></g><g><path clip-rule="evenodd" d="m1733.38 1597.73c-8.21-21.55-1.79-46.6 15.98-61.37 17.91-14.84 44.31-16.48 63.94-3.92 18.7 11.99 28.47 34.89 23.91 56.66-4.57 21.77-22.19 38.89-44.17 42.6-26.26 4.34-50.88-11.07-59.66-33.97z" fill="#fff" fill-rule="evenodd"/></g></g></g><g id="Master_Layer_2"/></svg>