<svg id="Layer_1" enable-background="new 0 0 512 512" height="512" viewBox="0 0 512 512" width="512" xmlns="http://www.w3.org/2000/svg"><g><g><g><g><g><path d="m256 492.583c-130.454 0-236.583-106.129-236.583-236.583s106.129-236.583 236.583-236.583 236.583 106.129 236.583 236.583-106.129 236.583-236.583 236.583zm0-435.095c-109.459 0-198.512 89.053-198.512 198.512s89.053 198.512 198.512 198.512 198.512-89.053 198.512-198.512-89.053-198.512-198.512-198.512z" fill="#ed1c24"/></g></g></g></g><g><g><g><g><path d="m88.101 395.505-21.68-31.294 357.478-247.716 21.68 31.294z" fill="#ed1c24"/></g></g></g></g><g><g><g><g><path d="" fill="none" stroke="#010101" stroke-miterlimit="10" stroke-width=".5"/></g></g></g></g><g id="XMLID_2_"><g><g><g><g><g><circle cx="283.204" cy="112.885" r="34.114"/></g></g></g></g></g></g><g><g><g><g><g><g><path d="m357.599 192.914c-14.764-12.109-29.53-24.215-44.294-36.324-13.563-11.121-32.94 8.368-19.221 19.618 14.764 12.109 29.53 24.215 44.294 36.324 13.56 11.124 32.94-8.367 19.221-19.618z"/></g></g></g></g></g></g><g id="XMLID_1_"><g><g><g><g><g><path d="m319.973 172.956 6.203 74.197c.98 11.715-6.69 21.909-17.135 22.785l-23.631 1.974c-10.446.871-19.702-7.909-20.679-19.622l-6.203-74.197c-.98-11.715 6.69-21.909 17.135-22.785l23.631-1.974c10.447-.871 19.703 7.909 20.679 19.622z"/></g></g></g><g><g><g><path d="m283.98 274.69c-11.276 0-20.921-9.741-21.957-22.174l-6.204-74.193c-1.099-13.182 7.701-24.724 19.614-25.722l23.635-1.976c12.025-1.068 22.53 9.066 23.614 22.1l6.204 74.198c1.099 13.182-7.701 24.724-19.614 25.722l-23.635 1.976c-.558.048-1.11.069-1.657.069zm16.746-118.695c-.398 0-.802.016-1.2.048l-23.635 1.976c-8.928.749-15.503 9.656-14.654 19.848l6.204 74.193c.844 10.091 8.875 17.872 17.739 17.145l23.635-1.976c8.928-.749 15.503-9.656 14.654-19.848l-6.204-74.198c-.807-9.641-8.068-17.188-16.539-17.188z"/></g></g></g></g></g><g><g><g><g><g><path d="m326.177 247.153c.98 11.715-6.69 21.909-17.135 22.785l-23.631 1.974c-10.446.871-19.702-7.909-20.679-19.622l-6.203-74.197c-.98-11.715 6.69-21.909 17.135-22.785l23.631-1.974c10.446-.871 19.702 7.909 20.679 19.622z"/></g></g></g><g><g><g><path d="m283.98 273.331c-10.575 0-19.625-9.194-20.602-20.932l-6.204-74.193c-1.036-12.434 7.207-23.316 18.377-24.251l23.635-1.976c11.233-.898 21.117 8.556 22.142 20.863l6.204 74.198c1.036 12.434-7.207 23.316-18.377 24.251l-23.635 1.976c-.515.042-1.031.064-1.54.064zm16.746-118.696c-.436 0-.876.016-1.317.053l-23.635 1.976c-9.672.813-16.805 10.378-15.891 21.319l6.204 74.193c.903 10.824 9.422 19.216 19.211 18.382l23.635-1.976c9.672-.813 16.805-10.378 15.891-21.319l-6.203-74.198c-.867-10.335-8.723-18.43-17.895-18.43z"/></g></g></g></g></g></g><g><g><g><g><g><g><path d="m260.774 162.89c-14.705 20.226-29.406 40.452-44.111 60.674-10.38 14.279 10.722 31.86 21.135 17.534 14.705-20.226 29.407-40.452 44.111-60.674 10.38-14.276-10.722-31.856-21.135-17.534z"/></g></g></g></g></g></g><g><g><g><g><g><g><path d="m346.175 326.382c-5.992-22.97-11.986-45.938-17.981-68.91-4.469-17.133-31.145-10.613-26.665 6.544 5.992 22.971 11.986 45.938 17.981 68.91 4.467 17.137 31.14 10.615 26.665-6.544z"/></g></g></g></g></g></g><g><g><g><g><g><g><path d="m272.222 342.372c5.469-23.101 10.934-46.199 16.401-69.303 4.079-17.23-22.543-23.968-26.624-6.712-5.469 23.101-10.934 46.199-16.401 69.303-4.083 17.232 22.538 23.967 26.624 6.712z"/></g></g></g></g></g></g><g><g><g><g><g><g><path d="m372.055 390.24c-8.36-20.832-16.715-41.665-25.075-62.497-6.593-16.43-32.283-6.733-25.676 9.727 8.36 20.832 16.715 41.665 25.075 62.497 6.59 16.428 32.28 6.732 25.676-9.727z"/></g></g></g></g></g></g><g><g><g><g><g><g><path d="m287.962 404.756c-4.937-21.897-9.87-43.794-14.807-65.691-3.893-17.269-30.799-11.786-26.897 5.516 4.937 21.897 9.87 43.795 14.807 65.691 3.891 17.268 30.797 11.784 26.897-5.516z"/></g></g></g></g></g></g><g><g><g><g><g><g><path d="m378.157 258.792c-2.647-16.95-5.289-33.898-7.936-50.848-1.157-7.406-10.364-11.362-16.927-9.521-7.853 2.203-10.675 9.54-9.521 16.927 2.647 16.95 5.289 33.898 7.936 50.848 1.157 7.406 10.364 11.362 16.927 9.521 7.853-2.204 10.672-9.538 9.521-16.927z"/></g></g></g></g></g></g><g><g><g><g><g><g><path d="m227.448 219.859c-16.823-3.359-33.643-6.722-50.466-10.081-7.351-1.468-14.239 5.811-14.773 12.606-.639 8.131 5.275 13.309 12.606 14.773 16.823 3.359 33.643 6.722 50.466 10.081 7.351 1.468 14.239-5.811 14.773-12.606.64-8.131-5.273-13.305-12.606-14.773z"/></g></g></g></g></g></g><g><g><g><g><path d="m139.886 266.065c-.478 0-.951-.127-1.37-.372l-23.497-13.687c-1.296-.754-1.737-2.417-.977-3.718l16.422-28.197c.361-.621.956-1.073 1.652-1.259.696-.175 1.445-.08 2.066.281l23.497 13.687c1.296.754 1.737 2.417.977 3.718l-16.422 28.197c-.361.621-.956 1.073-1.652 1.259-.229.059-.462.091-.696.091zm-19.779-17.389 18.796 10.952 13.687-23.497-18.796-10.952z"/></g></g></g></g><g><g><g><g><path d="m115.582 333.395c-.765 0-1.524-.319-2.061-.945l-21.277-24.74c-.983-1.142-.85-2.857.287-3.835l24.74-21.277c1.147-.972 2.863-.85 3.835.287l21.277 24.74c.983 1.142.85 2.857-.287 3.835l-24.74 21.277c-.515.44-1.148.658-1.774.658zm-17.442-27.172 17.729 20.618 20.618-17.729-17.729-20.618z"/></g></g></g></g><g><g><g><g><path d="m165.927 328.413c-.951 0-1.88-.505-2.374-1.397l-26.466-47.514c-.351-.627-.441-1.376-.239-2.066.197-.696.659-1.28 1.291-1.631l38.012-21.171c1.301-.722 2.969-.266 3.697 1.052l26.466 47.514c.351.627.441 1.376.239 2.066-.197.696-.659 1.28-1.291 1.631l-38.012 21.171c-.42.234-.872.345-1.323.345zm-22.769-49.182 23.821 42.766 33.264-18.526-23.821-42.766z"/></g></g></g></g><g><g><g><g><path d="m192.695 400.821c-.186 0-.382-.021-.579-.064l-37.205-8.068c-.701-.149-1.317-.579-1.71-1.184-.388-.605-.521-1.344-.366-2.05l11.531-53.149c.319-1.461 1.721-2.401 3.235-2.077l37.205 8.068c.701.149 1.317.579 1.71 1.184.388.605.521 1.344.366 2.05l-11.531 53.149c-.276 1.27-1.402 2.141-2.656 2.141zm-33.97-12.869 31.889 6.915 10.378-47.833-31.889-6.915z"/></g></g></g></g></g></svg>