<svg id="Layer_1" enable-background="new 0 0 512 512" viewBox="0 0 512 512" xmlns="http://www.w3.org/2000/svg"><g clip-rule="evenodd" fill-rule="evenodd"><path d="m309.447 208.55h53.071c8.593 0 15.573-7.025 15.573-15.61v-140.568h94.897v140.568c0 60.926-49.535 110.509-110.47 110.509h-53.071zm-106.894 94.899h-53.024c-8.607 0-15.62 7.003-15.62 15.612v140.569h-94.896v-140.569c0-60.954 49.562-110.511 110.517-110.511h53.024v94.899z" fill="#a4d4ff"/><path d="m87.943 130.41c0-4.969 4.046-9 9.034-9 4.94 0 8.986 4.031 8.986 9 0 4.97-4.046 9-8.986 9-4.988 0-9.034-4.03-9.034-9zm2.023-23.05v-47.589c0-3.871 3.152-7 7.01-7s6.963 3.129 6.963 7v47.589c0 3.859-3.105 7.001-6.963 7.001-3.857-.001-7.01-3.142-7.01-7.001zm-66.244 37.44c-1.318 2.29-.471 4.3 0 5.05.423.759 1.741 2.519 4.375 2.519h137.711c2.635 0 3.952-1.761 4.376-2.519.471-.75 1.317-2.761 0-5.05l-68.879-119.269c-1.318-2.301-3.482-2.55-4.329-2.55-.894 0-3.058.249-4.376 2.55zm4.375 21.571h137.711c6.916 0 13.079-3.56 16.514-9.511 3.434-5.96 3.434-13.089 0-19.06l-68.879-119.27c-3.435-5.98-9.598-9.551-16.467-9.551-6.916 0-13.08 3.571-16.514 9.551l-68.878 119.27c-3.435 5.971-3.435 13.1 0 19.051 3.434 5.96 9.597 9.52 16.513 9.52zm296.217 263.359c-2.917 6.07-8.328 6.27-12.091 4.6-1.082-.489-6.492-3.229-5.081-9.32.141-.38.423-.99.659-1.54 1.317-2.91 3.34-7.32 1.929-12.38-.753-2.711-2.164-5.399-4.282-8.16 4.422 1.31 8.516 3.19 12.044 5.55 9.128 6.191 11.104 12.351 6.822 21.25zm.988-32.85c-11.339-7.7-27.194-11.4-41.308-9.659-2.87.349-5.223 2.459-5.928 5.28-.659 2.83.47 5.789 2.87 7.439 11.715 8.05 14.585 12.661 15.244 14.76-.047.621-.706 2.08-1.129 2.961-.471 1.05-.988 2.13-1.317 3.319-.047.13-.094.261-.141.392-2.635 10.59 2.682 21.17 12.938 25.75 3.058 1.36 6.446 2.099 9.833 2.099 7.951 0 16.044-4.01 20.56-13.419 5.175-10.681 7.339-26.101-11.622-38.922zm-65.773 88.141c-2.4 3.319-7.199 5.859-12.797 2.06-8.139-5.561-9.504-11.882-4.658-21.832 1.835-3.79 4.469-7.48 7.622-10.809-.424 3.439-.329 6.469.376 9.189 1.317 5.1 5.269 7.91 7.904 9.76.47.349.988.739 1.317 1 4.235 4.582.942 9.652.236 10.632zm9.362-20.821c.094.09.188.18.282.281 7.622 7.829 8.281 19.668 1.694 28.769-4.187 5.75-11.009 9.77-18.584 9.77-4.329 0-8.939-1.31-13.409-4.371-9.786-6.681-19.384-18.959-9.41-39.521 6.022-12.348 17.878-23.469 30.958-29.019 2.682-1.13 5.787-.489 7.763 1.61 2.023 2.101 2.541 5.23 1.271 7.852-6.116 12.848-6.305 18.279-5.834 20.429.376.5 1.647 1.43 2.447 1.99.94.67 1.928 1.37 2.822 2.21zm-58.481-87.789c-1.412 5.07.611 9.47 1.929 12.39.235.539.517 1.149.659 1.529 1.364 6.091-3.999 8.831-5.081 9.32-3.764 1.671-9.175 1.47-12.091-4.6-4.329-8.89-2.305-15.05 6.822-21.249 3.482-2.36 7.622-4.24 12.044-5.541-2.118 2.751-3.529 5.44-4.282 8.151zm16.138 10.279c-.047-.128-.094-.259-.141-.389-.329-1.18-.847-2.27-1.318-3.319-.424-.88-1.082-2.33-1.129-2.961.611-2.1 3.529-6.699 15.244-14.759 2.4-1.651 3.529-4.611 2.87-7.43-.706-2.83-3.058-4.929-5.975-5.289-14.068-1.74-29.923 1.97-41.262 9.669-18.96 12.811-16.796 28.231-11.668 38.92 4.564 9.4 12.656 13.41 20.56 13.41 3.435 0 6.822-.729 9.88-2.1 10.257-4.571 15.573-15.161 12.939-25.752zm262.436-344.319h-126.89v-19.371h126.889v19.371zm-19.996 150.569c0 58.73-47.754 106.509-106.47 106.509h-49.071v-86.9h49.071c10.774 0 19.572-8.79 19.572-19.609v-136.569h86.898zm-169.515 117.941h-25.783l-10.821-56.201c-.612-3.3-3.482-5.681-6.869-5.681-3.341 0-6.258 2.38-6.869 5.681l-10.821 56.201h-25.736v-109.751h86.898v109.751zm-149.944-11.431h49.025v-86.9h-49.025c-58.763 0-106.518 47.78-106.518 106.512v136.568h86.898v-136.569c.001-10.81 8.799-19.611 19.62-19.611zm.377 189.55h-126.89v-19.369h126.89zm346.088-480.002h-140.91c-3.858 0-6.963 3.133-6.963 7.001v33.372c0 3.86 3.105 7 6.963 7h13.032v136.569c0 2.99-2.635 5.611-5.599 5.611h-49.071v-4.422c0-3.869-3.152-6.998-7.01-6.998h-100.872c-3.858 0-7.01 3.13-7.01 6.998v4.422h-49.025c-66.479 0-120.538 54.06-120.538 120.51v136.569h-12.985c-3.858 0-7.01 3.141-7.01 7v33.37c0 3.871 3.152 7 7.01 7h140.91c3.858 0 7.01-3.13 7.01-7v-33.369c0-3.86-3.152-7-7.01-7h-13.033v-136.57c0-3.042 2.588-5.611 5.646-5.611h49.025v4.429c0 3.871 3.152 7 7.01 7h38.533c3.34 0 6.21-2.38 6.869-5.679l5.034-26.21 5.034 26.211c.659 3.299 3.529 5.679 6.869 5.679h38.533c3.858 0 7.01-3.13 7.01-7v-4.429h49.071c66.432 0 120.491-54.06 120.491-120.51v-136.57h12.986c3.858 0 7.01-3.141 7.01-7v-33.372c0-3.867-3.152-7.001-7.01-7.001z" fill="#1f4571"/></g></svg>