<svg clip-rule="evenodd" fill-rule="evenodd" height="1.707in" image-rendering="optimizeQuality" shape-rendering="geometricPrecision" text-rendering="geometricPrecision" viewBox="0 0 1.70666 1.70666" width="1.707in" xmlns="http://www.w3.org/2000/svg"><g id="Layer_x0020_1"><path d="m.562823.997681c-.00964961.00030709-.0191575.00080315-.0278661.00082677v.0270394l.0278661-.0278661zm-.163528.428181c-.0337402-.0209961-.100244-.0958425-.118236-.118083-.00059449-.00060236-.00111024-.00123622-.0015315-.00190157-.102685-.130016-.156972-.2865-.156972-.452555 0-.402953.327819-.730776.730776-.730776.165882 0 .322236.0541929.452201.156713l.00039764.00030315c.0449134.0354843.0856732.0762283.121146.12113.00029134.00037008.00057087.00074803.00083071.00112992.380059.493378.0224646 1.18229-.574575 1.18229-.166047 0-.322559-.0542992-.452614-.157043-.00002756-.00002756-.00005906-.00005906-.00010236-.00008268v.00001575c-.00045669-.00036614-.00090158-.00074409-.0013189-.0011378zm-.102035-.162618.0753307-.0753307v-.75124c0-.0280512.0419449-.0199961.0811772-.0199961.0447598 0 .081189.0364094.081189.0811732v.147346c.0127047.00003543.027122.00107087.041189.00107087.0447598 0 .0811732.0364134.0811732.0811772v.00156693h.0676063v-.00490157c0-.0173583.014126-.0314685.0314685-.0314685h.0110787c.00008661-.0145.00100394-.0339921.00100394-.0601614 0-.0110394.00896063-.02.0199961-.02h.0073937v-.0707283h-.0773189c-.0899764 0-.0899606-.136724 0-.136724l.315807-.00000394c.0390394 0 .0611417.0256929.0663307.0547953l.162555-.162551c-.11926-.0882165-.260496-.134724-.409909-.134724-.380902 0-.69078.309874-.69078.69078 0 .149425.0465079.290669.134709.409921zm.115339-.115339.0823661-.0823661.00000394-.567689c0-.0484882-.0535472-.0411772-.0823701-.0411772v.691232zm.275807-.275807.0365197-.0365197v-.0665709h-.0676063v.105673c.0193858 0 .0242835.0020315.0310866-.00258268zm.0770512-.0770472.0616614-.0616654c-.0174173.00041732-.0298504.0006063-.0386772-.00076378h-.0235197v.0163898c0 .0185906.0002874.0336378.00053543.0460394zm.102425-.102425.0401654-.0401654h-.092185-.00738976v.0401654h.0594094zm.0891457-.0891457.0617283-.0617283h-.0617283zm-.634878.691461c.0270472.0325079.0570709.0625197.0895551.0895551l.574811-.574811c.0382953-.038626.0560315-.0594291.0704252-.0704252l.327563-.327563c-.0270354-.0324803-.057063-.0624843-.0895551-.0895551l-.324287.324287-.00017717.00018504-.0801457.0801457-.00001575.00001575-.0737441.0737362-.036874.0368701-.0220906.0220945c-.00770079.0110906-.0222677.0223346-.0493543.0493661l-.00033858.00032677-.178693.178689-.00013386.0001378-.122366.122378-.00031496.00030315-.0842638.0842638zm.121256.114437c.11928.0882441.260508.134724.409925.134724.380898 0 .69076-.309874.69076-.69078 0-.149421-.0465079-.290657-.134713-.409925l-.284839.284839c.0118307.00038583.0261299.00079134.0438465.00079134.0913504 0 .165681.0743307.165681.165681v.154988c-.00001181.0110433-.0089685.0199961-.0200079.0199961h-.183252c-.0110354 0-.0199961-.0089685-.0199961-.0199961v-.135004c-.0457992 0-.0765906.00137008-.0972441.00094882v.0039685c0 .0173346-.014122.0314528-.0314803.0314528h-.0803701l-.458311.458315zm.640382-.640386-.0702205.0702205v.0354528l.117224.00000394c.0110394 0 .02.00897244.02.02v.135012h.00002756.143224v-.135004c0-.0692992-.0563661-.125685-.125669-.125685h-.0845866zm-.11126.11126-.0308031.0308031h.0318307v-.0146732c-.0008189-.00435827-.00105906-.00967717-.00102756-.0161299zm-.119197.826335c-.470492 0-.853264-.382787-.853264-.853264 0-.470476.382772-.853248.853264-.853248s.853264.382756.853264.853248-.382772.853264-.853264.853264zm0-1.66653c-.448437 0-.813268.364831-.813268.813268s.364831.813268.813268.813268c.448433 0 .813268-.364831.813268-.813268s-.364835-.813268-.813268-.813268zm.369091 1.26156c-.0449961 0-.0816181-.036622-.0816181-.081622 0-.0330827.0405748-.0830472.0643976-.123382.00775984-.0131299.0267323-.0130827.0344449 0 .0237362.0402717.0643976.0902205.0643976.123382 0 .0450157-.036622.081622-.081622.081622zm0-.15778c-.0138307.0210118-.0416063.0633465-.0416063.0761654 0 .0547598.0832165.0547598.0832165 0 0-.0128346-.0277717-.0551535-.0416102-.0761654zm-.605098-.249146v-.145681-.0215669c0-.0484921-.0535197-.0411811-.0823543-.0411811v.271161c.0288346 0 .0823543.00731102.0823543-.0411772v-.0215551zm.198024-.392937.00051575-.00000787.121165.00000787h.0973268c.0373268 0 .0373189-.0567323 0-.0567323h-.315807c-.0373307 0-.037315.0567323 0 .0567323h.0967992zm.101685.0399961h-.0811614v.0707126h.0811614z" fill="#000002"/><path d="m1.29495.322142-.972799.972799c.0270472.0325079.0570709.0625197.0895551.0895551l.574811-.574811c.0382953-.038626.0560315-.0594291.0704252-.0704252l.327563-.327563c-.0270354-.0324803-.057063-.0624843-.0895551-.0895551z" fill="#ff6262"/><path d="m.122555.853319c0-.402953.327819-.730776.730776-.730776.225449 0 .435406.102728.573744.278146l.00083071.00112992c.380059.493378.0224646 1.18229-.574575 1.18229-.166047 0-.322559-.0542992-.452614-.157043l-.00010236-.00006693-.0013189-.0011378c-.030878-.0192165-.106185-.100815-.119768-.119984-.102685-.130016-.156972-.2865-.156972-.452555zm-.0824921 0c0 .448437.364831.813268.813268.813268.448433 0 .813268-.364831.813268-.813268s-.364835-.813268-.813268-.813268c-.448437 0-.813268.364831-.813268.813268z" fill="#ff6262"/><path d="m.412598.456673v.691232l.0823661-.0823661.00000394-.567689c0-.0484882-.0535472-.0411772-.0823701-.0411772z" fill="#b5adb6"/><path d="m.534969.686264v.271161c.0288346 0 .0823543.00731102.0823543-.0411772v-.0215551-.167248c0-.0484921-.0535197-.0411811-.0823543-.0411811z" fill="#554e56"/><path d="m.657319.769008v.105673c.0193858 0 .0242835.0020315.0310866-.00258268l.0365197-.0365197v-.0665709h-.0676063z" fill="#b5adb6"/><path d="m.764921.732622.00053543.0624291.0616614-.0616654c-.0174173.00041732-.0298504.0006063-.0386772-.00076378h-.0235197z" fill="#554e56"/><path d="m.808472.692626h.05941l.040165-.040165h-.099575z" fill="#b5adb6"/><path d="m.83587.612465h.081161v-.070713h-.081161z" fill="#554e56"/><path d="m.815346.501756h.219008c.0373268 0 .0373189-.0567323 0-.0567323h-.315807c-.0373307 0-.037315.0567323 0 .0567323h.0967992z" fill="#b5adb6"/><path d="m1.08379.768992-.0702205.0702205v.0354528l.117224.00000394c.0110394 0 .02.00897244.02.02v.135012h.143252v-.135004c0-.0692992-.0563661-.125685-.125669-.125685h-.0845866z" fill="#b5adb6"/><path d="m.973555.896382c-.0008189-.00435827-.00105906-.00967717-.00102756-.0161299l-.0308031.0308031h.0318307v-.0146732z" fill="#554e56"/><path d="m1.22242 1.14384c-.0138307.0210118-.0416063.0633465-.0416063.0761654 0 .0547598.0832165.0547598.0832165 0 0-.0128346-.0277717-.0551535-.0416102-.0761654z" fill="#60b7ff"/></g></svg>