<svg id="Capa_1" enable-background="new 0 0 501 501" height="512" viewBox="0 0 501 501" width="512" xmlns="http://www.w3.org/2000/svg"><path d="m495.5 256c0 25.371-3.856 49.84-11.015 72.855-1.487 4.779-21.116 9.496-22.882 14.145-1.67 4.396 14.536 8.732 12.624 13.003-38.256 85.458-124.039 144.997-223.727 144.997-126.201 0-230.115-95.419-243.534-218.047-.969-8.851 2.315-76.311 9.338-99.127 30.807-100.083 124.007-172.826 234.196-172.826 89.672 0 168.092 48.175 210.79 120.056 5.772 9.717-20.109 19.867-15.703 30.389 4.406 10.523 39.099 21.418 42.018 32.626 5.153 19.781 7.895 40.535 7.895 61.929z" fill="#c0e0ff"/><g fill="#fff"><path d="m67.6 274.216v-.868c0-4.824-3.911-8.735-8.735-8.735h-18.774c-5.064 0-9.169-4.105-9.169-9.17 0-4.521 3.275-8.269 7.581-9.023h58.376c6.796 0 12.306-5.51 12.306-12.306s-5.509-12.306-12.306-12.306h-52.672c-5.244 0-9.495-4.251-9.495-9.495s4.251-9.495 9.495-9.495h19.75c4.825 0 8.736-3.911 8.736-8.735v-1.519c0-4.824-3.911-8.736-8.736-8.736h-47.646c-7.023 22.817-10.811 47.051-10.811 72.172 0 9.11.513 18.099 1.482 26.951h51.882c4.825 0 8.736-3.911 8.736-8.735z"/><path d="m379.857 131.064c-6.842 0-12.388 5.546-12.388 12.387 0 6.842 5.546 12.387 12.388 12.387h53.023c5.279 0 9.558 4.28 9.558 9.558 0 5.279-4.279 9.558-9.558 9.558h-19.881c-4.857 0-8.794 3.937-8.794 8.794v1.529c0 4.857 3.937 8.794 8.794 8.794h74.6c-5.838-22.415-14.778-43.575-26.322-63.008h-81.42z"/><path d="m412.619 343.588c.309 7.016 6.372 12.412 13.395 12.412h48.205c3.772-8.425 7.079-17.103 9.895-26h-58.508c-7.375 0-13.315 6.141-12.987 13.588z"/></g><path d="m272.047 261.785c0 26.272 21.298 47.57 47.57 47.57s47.57-21.298 47.57-47.57c0-1.615-.082-3.211-.24-4.785h-94.661c-.156 1.574-.239 3.17-.239 4.785z" fill="#fdd33a"/><path d="m272.047 261.785c0 26.272 21.298 47.57 47.57 47.57s47.57-21.298 47.57-47.57c0-1.615-.082-3.211-.24-4.785h-94.661c-.156 1.574-.239 3.17-.239 4.785z" fill="#fff"/><path d="m304.047 261.785c0-1.615.082-3.211.24-4.785h-32c-.157 1.574-.24 3.17-.24 4.785 0 26.272 21.298 47.57 47.57 47.57 5.615 0 10.999-.98 16-2.766-18.399-6.571-31.57-24.146-31.57-44.804z" fill="#cecece"/><path d="m161.677 363.256h-20v-269.296c0-51.81 42.15-93.96 93.96-93.96s93.96 42.15 93.96 93.96v55.353h-20v-55.353c0-40.781-33.179-73.96-73.96-73.96s-73.96 33.179-73.96 73.96z" fill="#0c051c"/><path d="m154.179 246h-3.759c-17.408 0-31.521 14.112-31.521 31.521v185.163c20.407 13.021 42.875 23.091 66.801 29.636v-214.8c0-17.408-14.113-31.52-31.521-31.52z" fill="#333"/><path d="m154.511 246h-4.424c-20.487 0-37.095 15.755-37.095 35.191v177.603c23.587 16.025 50.12 28.031 78.613 35.063v-212.666c.001-19.436-16.607-35.191-37.094-35.191z" fill="#474979"/><path d="m151.993 281.191c0-13.511 8.031-25.237 19.807-31.135-.615-.308-1.242-.598-1.877-.874-.066-.029-.133-.057-.2-.086-.593-.253-1.194-.492-1.803-.717-.064-.023-.127-.048-.191-.071-1.347-.488-2.731-.906-4.148-1.245-.038-.009-.078-.016-.116-.026-.627-.148-1.26-.278-1.899-.395-.186-.034-.374-.064-.561-.095-.502-.084-1.007-.159-1.516-.224-.226-.029-.452-.057-.679-.082-.501-.055-1.005-.098-1.512-.133-.213-.015-.424-.034-.638-.046-.711-.039-1.427-.063-2.149-.063h-4.424c-20.487 0-37.095 15.755-37.095 35.191v177.603c12.25 8.322 25.3 15.549 39 21.57v-199.172z" fill="#2d3259"/><path d="m358.268 197.037h-77.962v-57.712c0-16.292 13.208-29.5 29.5-29.5h18.962c16.292 0 29.5 13.208 29.5 29.5z" fill="#474979"/><path d="m338.787 111.573c-3.128-1.13-6.501-1.748-10.019-1.748h-18.962c-16.292 0-29.5 13.208-29.5 29.5v57.712h39v-57.712c0-12.775 8.121-23.65 19.481-27.752z" fill="#2d3259"/><path d="m319.287 181.797c-52.318 0-96.544 34.604-111.064 82.17-.672 2.201.994 4.425 3.294 4.425h215.539c2.301 0 3.966-2.224 3.294-4.425-14.519-47.566-58.745-82.17-111.063-82.17z" fill="#ff3972"/><path d="m254.932 268.392c10.986-41.909 44.835-74.961 87.388-84.288-7.447-1.499-15.144-2.307-23.032-2.307-52.387 0-96.66 34.696-111.121 82.359-.64 2.108.952 4.237 3.155 4.237h43.61z" fill="#cc175d"/><path d="m319.606 334v81" style="fill:none;stroke:#fff;stroke-width:15;stroke-linecap:round;stroke-linejoin:round;stroke-miterlimit:10"/><path d="m351.869 330.085 26.237 61.415" style="fill:none;stroke:#fff;stroke-width:15;stroke-linecap:round;stroke-linejoin:round;stroke-miterlimit:10"/><path d="m288.106 330.085-26.237 61.415" style="fill:none;stroke:#fff;stroke-width:15;stroke-linecap:round;stroke-linejoin:round;stroke-miterlimit:10"/></svg>