<svg id="Layer_1" viewBox="0 0 512 512" xmlns="http://www.w3.org/2000/svg" data-name="Layer 1"><g><g fill-rule="evenodd"><path d="m254.625 422.835h-53.321c-12.22 0-22.218-9.998-22.218-22.218v-21.105c0-38.806-21.304-33.917-41.23-64.802-13.977-21.664-22.089-47.468-22.089-75.167 0-76.689 62.168-138.857 138.857-138.857s138.857 62.168 138.857 138.857c0 27.7-8.112 53.503-22.089 75.167-19.925 30.885-41.23 25.996-41.23 64.802v21.105c0 12.22-9.997 22.218-22.218 22.218h-53.321z" fill="#faa845"/><path d="m254.625 422.835h-29.321c-12.22 0-22.218-9.998-22.218-22.218v-21.105c0-38.806-21.304-33.917-41.23-64.802-13.977-21.664-22.089-47.468-22.089-75.167 0-72.645 55.788-132.251 126.857-138.336 71.069 6.085 126.858 65.69 126.858 138.336 0 27.7-8.112 53.503-22.089 75.167-19.925 30.885-41.23 25.996-41.23 64.802v21.105c0 12.22-9.997 22.218-22.218 22.218h-53.321z" fill="#ffcb5b"/><path d="m306.29 422.835v39.562c0 18.482-16.744 33.602-37.209 33.602h-28.911c-20.465 0-37.209-15.121-37.209-33.602v-39.562z" fill="#cd212d"/><path d="m306.29 422.835v39.562c0 18.482-16.744 33.602-37.209 33.602h-6.68c-20.465 0-37.209-15.121-37.209-33.602v-39.562z" fill="#ee2b39"/><path d="m247.625 422.835v-159.184c0-3.866 3.134-7 7-7s7 3.134 7 7v159.184z" fill="#666"/><path d="m254.625 207.311c8.745 0 16.662 3.545 22.393 9.277 5.731 5.731 9.277 13.649 9.277 22.394s-3.545 16.662-9.277 22.393c-5.731 5.731-13.649 9.277-22.393 9.277s-16.662-3.545-22.393-9.277c-5.731-5.731-9.277-13.649-9.277-22.393s3.545-16.662 9.277-22.394c5.731-5.731 13.649-9.277 22.393-9.277zm12.495 19.175c-3.197-3.197-7.615-5.175-12.495-5.175s-9.299 1.978-12.495 5.175c-3.197 3.197-5.175 7.615-5.175 12.496s1.978 9.298 5.175 12.495 7.615 5.175 12.495 5.175 9.299-1.978 12.495-5.175c3.197-3.197 5.175-7.615 5.175-12.495s-1.978-9.299-5.175-12.496z" fill="#666"/><path d="m70.934 67.205-53.254 131.928c-.513 1.271-.373 2.598.393 3.734.766 1.137 1.945 1.763 3.316 1.763h61.638l-58.235 138.585c-.771 1.835-.098 3.922 1.6 4.962 1.698 1.039 3.863.688 5.146-.834l167.599-198.844c1.026-1.217 1.24-2.82.568-4.264s-2.034-2.314-3.627-2.314h-53.74l33.787-71.509c.603-1.276.518-2.657-.237-3.849s-1.968-1.859-3.379-1.859h-97.865c-1.665 0-3.086.959-3.709 2.502z" fill="#cd212d"/><path d="m40.066 204.63h61.638l-49.832 118.587 147.265-174.72c1.026-1.217 1.24-2.82.568-4.264s-2.034-2.314-3.627-2.314h-53.74l33.787-71.509c.603-1.276.518-2.657-.237-3.849s-1.968-1.859-3.379-1.859h-79.188c-1.665 0-3.086.959-3.709 2.502l-53.254 131.928c-.513 1.271-.373 2.598.393 3.734.767 1.137 1.945 1.763 3.316 1.763z" fill="#ee2b39"/></g><circle cx="388.328" cy="122.296" fill="#00ade6" r="106.297" transform="matrix(.707 -.707 .707 .707 27.262 310.409)"/><circle cx="388.328" cy="122.296" fill="#cd212d" r="75.617" transform="matrix(.707 -.707 .707 .707 27.262 310.409)"/><path d="m396.766 47.151c37.79 4.196 67.179 36.237 67.179 75.146s-29.389 70.949-67.179 75.146c-37.79-4.196-67.179-36.237-67.179-75.146s29.39-70.949 67.179-75.146z" fill="#ee2b39" fill-rule="evenodd"/><path d="m354.244 156.382c-5.049-5.05-5.049-13.312 0-18.361l15.724-15.724-15.724-15.724c-5.05-5.05-5.05-13.312 0-18.361 5.05-5.05 13.312-5.05 18.361 0l15.724 15.724 15.724-15.724c5.049-5.05 13.311-5.05 18.361 0 5.049 5.05 5.049 13.312 0 18.361l-15.724 15.724 15.724 15.724c5.05 5.049 5.05 13.311 0 18.361-5.05 5.05-13.312 5.05-18.361 0l-15.724-15.724-15.724 15.724c-5.05 5.05-13.312 5.05-18.361 0z" fill="#fff" fill-rule="evenodd"/></g><g fill-rule="evenodd"><path d="m157.255 148.919c-1.778 0-3.561-.669-4.921-2.019-2.747-2.72-2.78-7.15-.06-9.9 27.62-27.931 64.45-43.31 103.73-43.31 10.272 0 20.52 1.07 30.48 3.19 3.781.8 6.19 4.52 5.389 8.3-.807 3.779-4.53 6.2-8.309 5.39-8.999-1.91-18.27-2.88-27.56-2.88-35.506 0-68.81 13.9-93.77 39.15-1.37 1.389-3.18 2.08-4.979 2.079zm152.073 280.921h-106.642c-16.11 0-29.223-13.11-29.223-29.22v-21.11c0-21.08-6.42-26.59-17.06-35.7-6.709-5.75-15.06-12.91-23.049-25.3-13.679-21.2-21.631-45.74-22.991-70.97-.205-3.86 2.751-7.16 6.611-7.36 3.862-.24 7.16 2.75 7.359 6.61 1.242 22.79 8.42 44.97 20.78 64.13 6.894 10.68 14.07 16.83 20.4 22.26 11.784 10.09 21.95 18.81 21.95 46.33l.004 21.11c0 8.39 6.816 15.22 15.216 15.22h106.644c8.388 0 15.216-6.83 15.216-15.22l.003-21.11c0-27.52 10.167-36.24 21.937-46.33 6.333-5.43 13.511-11.58 20.4-22.26 13.724-21.27 20.97-45.95 20.97-71.38.003-3.49-.129-7.03-.409-10.5-.298-3.851 2.579-7.22 6.43-7.53 3.874-.3 7.23 2.58 7.53 6.43.304 3.84.45 7.74.45 11.6.003 28.129-8.02 55.43-23.2 78.97-7.999 12.39-16.349 19.55-23.059 25.3-10.627 9.11-17.05 14.62-17.05 35.7l.002 21.11c0 16.11-13.112 29.22-29.218 29.22z"/><path d="m270.456 503h-28.913c-24.376 0-44.21-18.21-44.21-40.6l.002-39.56c0-3.871 3.138-7 6.998-7s7 3.13 7 7v39.559c.001 14.67 13.549 26.6 30.209 26.6h28.913c16.659 0 30.208-11.93 30.208-26.6v-39.56c.001-3.871 3.14-7 6.999-7s7.001 3.13 7.001 7v39.559c0 22.39-19.83 40.6-44.208 40.6z"/><path d="m256.007 429.84c-3.87 0-7.003-3.14-7.003-7v-159.19c.001-3.86 3.13-7 7-7 3.86 0 7.001 3.14 7.001 7v159.19c0 3.859-3.141 7-6.997 7z"/><path d="m256.007 221.31c-9.751 0-17.673 7.93-17.673 17.67.002 9.75 7.92 17.67 17.67 17.67 9.741 0 17.67-7.92 17.67-17.67s-7.93-17.67-17.667-17.67zm0 49.34c-17.474 0-31.673-14.21-31.673-31.67.002-17.46 14.199-31.67 31.67-31.67 17.464 0 31.67 14.21 31.67 31.67s-14.209 31.67-31.666 31.67z"/><path d="m27.214 197.63h57.19c2.34 0 4.53 1.17 5.83 3.13 1.294 1.95 1.53 4.42.62 6.58l-50.609 120.44 150.759-178.861h-47.29c-2.399 0-4.631-1.229-5.911-3.249-1.289-2.03-1.45-4.57-.419-6.74l31.764-67.231h-91.102zm-11.218 176.78c-1.252 0-2.512-.34-3.652-1.03-2.945-1.81-4.14-5.5-2.799-8.68l64.321-153.07h-57.03c-2.322 0-4.503-1.16-5.804-3.08-1.298-1.93-1.559-4.38-.689-6.54l56.484-139.931c1.07-2.639 3.636-4.379 6.496-4.379h106.873c2.399 0 4.628 1.23 5.918 3.26 1.282 2.019 1.44 4.56.41 6.73l-31.758 67.229h51.291c2.718 0 5.196 1.581 6.346 4.05 1.151 2.47.76 5.38-1 7.46l-190.049 225.491c-1.368 1.63-3.351 2.49-5.359 2.49z"/><path d="m389.707 23c-54.751 0-99.303 44.54-99.303 99.3.002 54.75 44.551 99.29 99.3 99.29 54.754 0 99.3-44.54 99.3-99.29s-44.549-99.3-99.297-99.3zm0 212.59c-62.469 0-113.302-50.82-113.302-113.29.001-62.471 50.83-113.3 113.3-113.3 62.472 0 113.3 50.83 113.3 113.3.005 62.47-50.83 113.29-113.297 113.29z"/><path d="m389.707 53.68c-37.841 0-68.623 30.78-68.623 68.62.002 37.83 30.78 68.61 68.62 68.61 37.844 0 68.62-30.78 68.62-68.61.003-37.84-30.78-68.62-68.617-68.62zm0 151.23c-45.549 0-82.623-37.06-82.623-82.61.002-45.561 37.069-82.62 82.62-82.62 45.561 0 82.62 37.06 82.62 82.62.003 45.55-37.06 82.61-82.617 82.61z"/><path d="m364.804 91.409c-1.539 0-3.07.591-4.24 1.751-2.33 2.329-2.33 6.13 0 8.46l15.733 15.729c2.728 2.73 2.728 7.161-.003 9.9l-15.729 15.72c-2.331 2.33-2.331 6.13-.001 8.46 2.341 2.34 6.13 2.34 8.47 0l15.723-15.721c2.727-2.729 7.167-2.729 9.897 0l15.721 15.72c2.34 2.34 6.129 2.34 8.468 0 1.121-1.121 1.73-2.62 1.73-4.23.003-1.61-.611-3.11-1.73-4.23l-15.727-15.721c-2.732-2.739-2.733-7.169-.002-9.899l15.73-15.731c2.331-2.33 2.33-6.13 0-8.46-2.34-2.33-6.129-2.33-8.469 0l-15.718 15.73c-2.731 2.73-7.173 2.731-9.903 0l-15.72-15.73c-1.17-1.16-2.7-1.749-4.23-1.75zm0 75.771c-5.117 0-10.24-1.95-14.13-5.85-7.798-7.791-7.799-20.47 0-28.26l10.773-10.771-10.773-10.78c-7.798-7.79-7.799-20.47 0-28.259 7.794-7.79 20.46-7.79 28.261 0l10.772 10.779 10.769-10.78c7.798-7.79 20.468-7.79 28.259 0 7.799 7.79 7.799 20.47 0 28.26l-10.768 10.779 10.769 10.771c3.771 3.76 5.839 8.78 5.839 14.13.002 5.349-2.07 10.37-5.84 14.13-7.789 7.79-20.461 7.79-28.26 0l-10.768-10.771-10.769 10.771c-3.902 3.9-9.024 5.85-14.134 5.85z"/></g></svg>