<svg id="Capa_1" enable-background="new 0 0 512 512" height="512" viewBox="0 0 512 512" width="512" xmlns="http://www.w3.org/2000/svg"><circle cx="256" cy="256" fill="#f93d6e" r="256"/><circle cx="256" cy="256" fill="#f2f2f2" r="201.975"/><path d="m158.127 313.548c0 3.093.048 6.174.144 9.244 3.885 124.421 191.573 124.421 195.458 0 .096-3.07.144-6.151.144-9.244 0-86.601-37.855-164.324-97.874-217.649-60.018 53.325-97.872 131.048-97.872 217.649z" fill="#62ddd7"/><path d="m256.022 416.109c-47.904 0-95.809-31.108-97.751-93.323-.086-3.056-.143-6.141-.143-9.227 0-86.61 37.878-164.337 97.894-217.669-16.625 53.332-27.08 131.058-27.08 217.669 0 3.085 0 6.17.029 9.227.542 62.216 13.797 93.323 27.051 93.323z" fill="#44c1b8"/><ellipse cx="307.296" cy="292.144" fill="#86efe8" rx="24.223" ry="49.871"/><path d="m19.02 226h473.959v60h-473.959z" fill="#f93d6e" transform="matrix(.707 -.707 .707 .707 -106.039 256)"/></svg>