<svg id="&#x421;&#x43B;&#x43E;&#x439;_1" enable-background="new 0 0 4000 4000" viewBox="0 0 4000 4000" xmlns="http://www.w3.org/2000/svg" xmlns:xlink="http://www.w3.org/1999/xlink"><linearGradient id="SVGID_1_" gradientTransform="matrix(1 0 0 -1 0 5892.001)" gradientUnits="userSpaceOnUse" x1="449.71" x2="3432.61" y1="5785.427" y2="2802.526"><stop offset="0" stop-color="#61c0ff"/><stop offset="1" stop-color="#332ffa"/></linearGradient><path d="m250 500.575v-170.73c0-31.414 25.496-56.91 56.91-56.91s56.91 25.496 56.91 56.91v170.73c0 31.386 25.524 56.91 56.91 56.91h1138.202c31.386 0 56.91-25.524 56.91-56.91v-170.73c0-31.414 25.496-56.91 56.91-56.91s56.91 25.496 56.91 56.91v170.73c0 94.158-76.573 170.73-170.73 170.73h-85.365v1394.297c0 94.158 76.573 170.73 170.73 170.73s170.73-76.573 170.73-170.73v-483.736c0-345.188 280.823-626.011 626.011-626.011h910.562v-85.365c0-94.158 76.573-170.73 170.73-170.73h170.73c31.415 0 56.91 25.496 56.91 56.91s-25.496 56.91-56.91 56.91h-170.73c-31.386 0-56.91 25.524-56.91 56.91v654.466c0 31.414-25.496 56.91-56.91 56.91s-56.91-25.496-56.91-56.91v-455.281h-910.562c-282.417 0-512.191 229.775-512.191 512.191v483.736c0 156.901-127.649 284.551-284.551 284.551s-284.55-127.649-284.55-284.551v-1394.296h-739.83v1906.488c0 282.416 229.775 512.191 512.191 512.191h739.831c31.414 0 56.91 25.496 56.91 56.91 0 31.415-25.496 56.91-56.91 56.91h-739.831c-345.188 0-626.011-280.823-626.011-626.011v-1906.489h-85.366c-94.157.001-170.73-76.572-170.73-170.73zm2532.5 1678.848v-142.275c0-62.772 51.049-113.82 113.82-113.82h142.275c31.415 0 56.91-25.496 56.91-56.91s-25.496-56.91-56.91-56.91h-142.275c-125.515 0-227.64 102.125-227.64 227.64v142.275c0 31.414 25.496 56.91 56.91 56.91s56.91-25.467 56.91-56.91zm-1536.573-142.275c0-31.414-25.496-56.91-56.91-56.91h-398.371c-31.414 0-56.91 25.496-56.91 56.91s25.496 56.91 56.91 56.91h398.371c31.414 0 56.91-25.467 56.91-56.91zm1252.022 56.91c31.414 0 56.91-25.496 56.91-56.91s-25.496-56.91-56.91-56.91h-398.371c-31.414 0-56.91 25.496-56.91 56.91s25.496 56.91 56.91 56.91zm-1536.573 369.916c-46.951 0-85.365 38.414-85.365 85.365s38.414 85.365 85.365 85.365 85.365-38.414 85.365-85.365-38.414-85.365-85.365-85.365zm341.461 170.73c46.951 0 85.365-38.414 85.365-85.365s-38.414-85.365-85.365-85.365-85.365 38.414-85.365 85.365 38.414 85.365 85.365 85.365zm341.46-170.73c-46.951 0-85.365 38.414-85.365 85.365s38.414 85.365 85.365 85.365 85.365-38.414 85.365-85.365-38.414-85.365-85.365-85.365zm-170.73 455.28c46.951 0 85.365-38.415 85.365-85.365 0-46.951-38.414-85.365-85.365-85.365s-85.365 38.415-85.365 85.365c0 46.951 38.414 85.365 85.365 85.365zm-341.46 0c46.951 0 85.365-38.415 85.365-85.365 0-46.951-38.414-85.365-85.365-85.365s-85.365 38.415-85.365 85.365c-.001 46.951 38.414 85.365 85.365 85.365zm2560.954-858.517-733.913 733.913c113.507 214.067 80.983 485.87-97.658 666.759 47.321 65.475 41.516 157.67-17.386 216.571-31.642 31.642-73.727 49.085-118.487 49.085s-86.845-17.443-118.487-49.085l-839.424-839.424c-65.333-65.333-65.333-171.641 0-236.974 31.642-31.642 73.727-49.085 118.487-49.085 35.711 0 69.743 11.097 98.113 31.671 107.19-105.881 249.039-164.129 399.85-164.129 94.698 0 185.812 23.02 267.079 66.3l733.742-733.742c36.707-36.707 85.479-56.91 137.381-56.91s100.702 20.203 137.409 56.91l33.321 33.321c36.707 36.707 56.91 85.479 56.91 137.41.002 51.93-20.23 100.702-56.937 137.409zm-914.602 678.881-72.39-72.39c-85.991-85.991-200.323-133.369-321.94-133.369-119.682 0-232.165 46.069-317.701 129.499l272.571 272.571c22.223 22.224 22.223 58.248 0 80.471-11.126 11.126-25.667 16.675-40.236 16.675s-29.11-5.549-40.235-16.675l-313.006-313.006-21.341-21.341c-10.159-10.13-23.675-15.736-38.016-15.736s-27.857 5.606-38.016 15.736c-20.943 20.971-20.943 55.06 0 76.032l839.424 839.424c20.317 20.317 55.715 20.288 76.032 0 20.943-20.971 20.943-55.089 0-76.032l-21.341-21.341c-10.671-10.671-16.675-25.154-16.675-40.236 0-15.081 6.004-29.565 16.675-40.235l36.195-36.195c177.502-177.502 177.502-466.35 0-643.852zm857.692-816.29c0-21.512-8.366-41.715-23.589-56.91l-33.321-33.321c-30.418-30.418-83.43-30.418-113.82 0l-718.092 718.092c13.488 11.24 26.662 22.992 39.211 35.569l72.39 72.39c12.634 12.634 24.329 25.809 35.512 39.296l718.149-718.149c15.194-15.252 23.56-35.455 23.56-56.967z" fill="url(#SVGID_1_)"/></svg>