<svg id="Capa_1" enable-background="new 0 0 512.021 512.021" viewBox="0 0 512.021 512.021" xmlns="http://www.w3.org/2000/svg"><g><path d="m458.487 369.51-141.449-244.996c-34.641-60-121.244-60-155.885 0l-15 25.981 204.392 354.015h30c69.282 0 112.583-75 77.942-135z" fill="#fc4b3a"/><path d="m428.487 369.51-126.449-219.015c-34.641-60-121.244-60-155.885 0l-126.448 219.015c-34.641 60 8.66 135 77.942 135h252.898c69.282 0 112.583-75 77.942-135z" fill="#ff6c4a"/><path d="m406.526 399.51-141.449-244.996c-11.547-20-40.415-20-51.962 0l-141.449 244.996c-11.547 20 2.887 45 25.981 45h282.898c23.094 0 37.528-25 25.981-45z" fill="#b3deeb"/><path d="m239.099 169.509-17.321 30v107.502l124.127 107.502c21.125 0 34.643.001 34.643.002z" fill="#c2f1ff"/><path d="m97.641 414.51s172.745 0 248.264.002l-124.127-215.003z" fill="#fff"/><circle cx="239.096" cy="369.515" fill="#51606a" r="15"/><path d="m254.096 259.515v50c0 8.284-6.716 15-15 15s-15-6.716-15-15v-50c0-8.284 6.716-15 15-15s15 6.716 15 15z" fill="#51606a"/><path d="m497.01 106.097c.022 0-46.661-90.456-46.661-90.456-2.507-4.826-7.532-8.131-13.338-8.131v197c37.279 0 67.5-30.221 67.5-67.5-.001-11.144-2.718-21.648-7.501-30.913z" fill="#54d8ff"/><path d="m474.51 137.01c0-11.145-1.51-21.649-4.167-30.913.012 0-25.923-90.456-25.923-90.456-1.393-4.826-4.184-8.131-7.41-8.131-5.806 0-10.831 3.305-13.325 8.131-.013 0-46.697 90.456-46.697 90.456-4.761 9.264-7.479 19.769-7.479 30.913 0 37.279 30.221 67.5 67.5 67.5 20.712 0 37.501-30.22 37.501-67.5z" fill="#8de5ff"/><path d="m503.684 102.656-46.67-90.473c-3.9-7.508-11.562-12.173-19.993-12.173-8.444 0-16.104 4.67-19.987 12.188l-46.705 90.471c-5.513 10.728-8.308 22.282-8.308 34.341 0 14.157 3.982 27.962 11.518 39.922 2.208 3.505 6.841 4.556 10.344 2.348 3.505-2.208 4.556-6.839 2.348-10.344-6.024-9.562-9.209-20.602-9.209-31.926 0-9.652 2.237-18.899 6.644-27.474l46.695-90.453c1.298-2.512 3.851-4.073 6.661-4.073 2.812 0 5.372 1.566 6.673 4.07l46.601 90.336c.021.041.041.081.062.121 4.423 8.566 6.665 17.81 6.665 27.473 0 33.084-26.916 60-60 60-11.324 0-22.363-3.185-31.926-9.209-3.505-2.207-8.135-1.158-10.344 2.348-2.208 3.505-1.157 8.136 2.348 10.344 11.96 7.535 25.765 11.518 39.922 11.518 41.355 0 75-33.645 75-75-.002-12.082-2.807-23.64-8.339-34.355z"/><path d="m323.542 120.759c-17.623-30.525-49.188-48.749-84.435-48.749s-66.812 18.224-84.435 48.749l-141.455 245.006c-17.623 30.525-17.623 66.972 0 97.497 17.624 30.524 49.188 48.748 84.435 48.748h282.909c35.247 0 66.812-18.224 84.435-48.748 17.623-30.525 17.623-66.972 0-97.497zm128.463 335.003c-14.912 25.828-41.62 41.248-71.444 41.248h-282.909c-29.824 0-56.532-15.42-71.444-41.248-14.912-25.829-14.912-56.668 0-82.497l141.455-245.006c14.912-25.829 41.62-41.249 71.444-41.249s56.532 15.42 71.444 41.249l141.454 245.006c14.912 25.829 14.912 56.669 0 82.497z"/><path d="m239.106 347.015c-12.406 0-22.5 10.093-22.5 22.5s10.094 22.5 22.5 22.5 22.5-10.093 22.5-22.5-10.094-22.5-22.5-22.5zm0 30c-4.136 0-7.5-3.364-7.5-7.5s3.364-7.5 7.5-7.5 7.5 3.364 7.5 7.5-3.364 7.5-7.5 7.5z"/><path d="m239.106 237.015c-12.406 0-22.5 10.093-22.5 22.5v50c0 12.407 10.094 22.5 22.5 22.5s22.5-10.093 22.5-22.5v-50c0-12.406-10.094-22.5-22.5-22.5zm7.5 72.5c0 4.136-3.364 7.5-7.5 7.5s-7.5-3.364-7.5-7.5v-50c0-4.136 3.364-7.5 7.5-7.5s7.5 3.364 7.5 7.5z"/><path d="m91.157 418.26c1.34 2.32 3.815 3.75 6.495 3.75 2.785 0 276.18 0 282.766.005.05.001.099.001.147.001 1.263 0 2.542-.319 3.716-.991 3.585-2.05 4.839-6.612 2.804-10.206-.023-.042-.048-.085-.072-.126l-141.408-244.934c-1.34-2.32-3.815-3.75-6.495-3.75s-5.155 1.43-6.495 3.75l-141.458 245.001c-1.34 2.321-1.34 5.18 0 7.5zm147.953-233.751 128.457 222.505-256.925-.003z"/><path d="m271.583 150.764c-6.778-11.741-18.919-18.75-32.476-18.75s-25.697 7.009-32.476 18.75l-63.225 109.508c-2.071 3.587-.842 8.174 2.745 10.245s8.175.841 10.245-2.745l63.225-109.508c4.067-7.044 11.352-11.25 19.485-11.25s15.418 4.206 19.485 11.25l141.451 244.996c4.067 7.044 4.067 15.456 0 22.5s-11.352 11.25-19.485 11.25h-282.899c-8.135 0-15.419-4.206-19.486-11.25-4.066-7.044-4.066-15.455.001-22.5l63.225-109.508c2.071-3.587.842-8.174-2.745-10.245-3.589-2.072-8.175-.842-10.245 2.745l-63.226 109.508c-6.778 11.74-6.779 25.759-.001 37.5s18.919 18.75 32.477 18.75h282.898c13.557 0 25.697-7.009 32.476-18.75s6.778-25.759 0-37.5z"/></g><g/><g/><g/><g/><g/><g/><g/><g/><g/><g/><g/><g/><g/><g/><g/></svg>