<svg id="Capa_1" enable-background="new 0 0 512 512" height="512" viewBox="0 0 512 512" width="512" xmlns="http://www.w3.org/2000/svg"><g><path d="m255.994 330h-45v167c0 8.284 6.716 15 15 15h30 30c8.284 0 15-6.716 15-15v-167z" fill="#dce7f5"/><path d="m300.994 497v-167h-45v182h30c8.283 0 15-6.716 15-15z" fill="#c8d6ef"/><path d="m454.93 276.253-133.516-237.977h-.015c-13.272-23.613-38.335-38.276-65.405-38.276-27.056 0-52.119 14.663-65.391 38.276l-129.141 229.7c-15.593 29.488-15.558 34.41-15.468 47.024 0 41.353 33.647 75 75 75h135 135c41.353 0 75-33.647 75.015-76.831.071-10.342.104-15.018-11.079-36.916z" fill="#ff637b"/><path d="m466.008 313.169c.071-10.342.104-15.018-11.078-36.916l-133.516-237.977h-.015c-13.272-23.613-38.335-38.276-65.405-38.276v390h135c41.352 0 75-33.647 75.014-76.831z" fill="#e63950"/><path d="m428.19 289.975-132.939-236.992h.015c-7.983-14.179-23.027-22.983-39.272-22.983-16.23 0-31.274 8.804-39.258 22.983l-128.394 228.115c-12.424 23.15-12.405 25.825-12.363 31.822.015 26.895 20.2 47.08 45.015 47.08h135 135c24.814 0 45-20.186 45-45 .044-6.209.066-9.434-7.804-25.025z" fill="#ecf7fe"/><path d="m435.994 315c.044-6.209.066-9.434-7.804-25.025l-132.939-236.992h.015c-7.983-14.179-23.027-22.983-39.272-22.983v330h135c24.814 0 45-20.186 45-45z" fill="#dce7f5"/><g fill="#596c76"><path d="m245.388 175.605c2.93 2.93 6.768 4.395 10.605 4.395s7.676-1.465 10.605-4.395l30-30c5.859-5.859 5.859-15.352 0-21.211s-15.352-5.859-21.211 0l-4.395 4.395v-23.789c0-8.291-6.709-15-15-15s-15 6.709-15 15v23.789l-4.395-4.395c-5.859-5.859-15.352-5.859-21.211 0s-5.859 15.352 0 21.211z"/><path d="m404.06 308.511c-6.138-12.759-23.892-44.282-50.288-90.908-2.666-4.703-7.646-7.603-13.052-7.603h-42.48c-6.343 0-12.012 3.999-14.136 9.976-4.248 11.982-15.557 20.024-28.11 20.024s-23.862-8.042-28.11-20.024c-2.124-5.977-7.793-9.976-14.136-9.976h-42.48c-5.405 0-10.386 2.915-13.052 7.617-27.231 48.105-44.209 78.237-50.273 90.894-2.227 4.644-1.919 10.107.82 14.473 2.754 4.365 7.544 7.017 12.7 7.017h134.531 134.546c5.156 0 9.946-2.651 12.7-7.017 2.739-4.366 3.047-9.83.82-14.473z"/></g><g fill="#465a61"><path d="m403.24 322.983c2.739-4.365 3.047-9.829.82-14.473-6.138-12.759-23.892-44.282-50.288-90.908-2.666-4.702-7.646-7.602-13.052-7.602h-42.48c-6.343 0-12.012 3.999-14.136 9.976-4.248 11.982-15.557 20.024-28.11 20.024v90h134.546c5.156 0 9.946-2.651 12.7-7.017z"/><path d="m296.599 145.605c5.859-5.859 5.859-15.352 0-21.211s-15.352-5.859-21.211 0l-4.395 4.395v-23.789c0-8.291-6.709-15-15-15v90c3.838 0 7.676-1.465 10.605-4.395z"/></g></g></svg>