<svg id="Icons" height="512" viewBox="0 0 60 60" width="512" xmlns="http://www.w3.org/2000/svg"><path d="m12.076 31.543a1.053 1.053 0 0 0 .66.865l2.9 1.157a14.7 14.7 0 0 0 1.688 4.071l-1.224 2.871a1.029 1.029 0 0 0 .145 1.08 18.042 18.042 0 0 0 2.176 2.177 1.031 1.031 0 0 0 1.08.146l2.87-1.226a14.7 14.7 0 0 0 4.07 1.688l1.156 2.9a1.052 1.052 0 0 0 .866.66 16.809 16.809 0 0 0 3.084 0 1.052 1.052 0 0 0 .866-.66l1.156-2.9a14.7 14.7 0 0 0 4.07-1.688l2.861 1.226a1.031 1.031 0 0 0 1.08-.146 17.97 17.97 0 0 0 2.176-2.177 1.029 1.029 0 0 0 .145-1.08l-1.221-2.871a14.7 14.7 0 0 0 1.688-4.071l2.9-1.157a1.053 1.053 0 0 0 .66-.865 15.753 15.753 0 0 0 0-3.086 1.053 1.053 0 0 0 -.66-.865l-2.9-1.157a14.7 14.7 0 0 0 -1.688-4.071l1.225-2.871a1.029 1.029 0 0 0 -.145-1.08 17.97 17.97 0 0 0 -2.176-2.177 1.031 1.031 0 0 0 -1.08-.146l-2.87 1.226a14.7 14.7 0 0 0 -4.07-1.688l-1.156-2.9a1.052 1.052 0 0 0 -.866-.66 16.809 16.809 0 0 0 -3.084 0 1.052 1.052 0 0 0 -.866.66l-1.156 2.9a14.7 14.7 0 0 0 -4.07 1.688l-2.866-1.226a1.031 1.031 0 0 0 -1.08.146 17.97 17.97 0 0 0 -2.176 2.177 1.029 1.029 0 0 0 -.145 1.08l1.225 2.871a14.7 14.7 0 0 0 -1.688 4.071l-2.9 1.157a1.053 1.053 0 0 0 -.66.865 15.753 15.753 0 0 0 0 3.086z" fill="#223a75"/><g fill="#1b9667"><path d="m23.63 3.678-1.144 3.875a1.089 1.089 0 0 1 -2.016.17l-.37-.711a25.08 25.08 0 0 0 -15.092 21.135 2 2 0 0 1 -1.993 1.853 2.014 2.014 0 0 1 -2.015-2.154 29.033 29.033 0 0 1 17.2-24.378l-.441-.841a1.088 1.088 0 0 1 1.274-1.572l3.852 1.231a1.134 1.134 0 0 1 .745 1.392z"/><path d="m3.678 36.37 3.875 1.144a1.089 1.089 0 0 1 .17 2.016l-.711.372a25.08 25.08 0 0 0 21.135 15.09 2 2 0 0 1 1.853 1.993 2.014 2.014 0 0 1 -2.154 2.015 29.033 29.033 0 0 1 -24.378-17.2l-.841.441a1.088 1.088 0 0 1 -1.572-1.274l1.231-3.852a1.134 1.134 0 0 1 1.392-.745z"/><path d="m36.37 56.322 1.144-3.875a1.089 1.089 0 0 1 2.016-.17l.372.711a25.08 25.08 0 0 0 15.09-21.135 2 2 0 0 1 1.993-1.853 2.014 2.014 0 0 1 2.015 2.154 29.033 29.033 0 0 1 -17.2 24.378l.441.841a1.088 1.088 0 0 1 -1.274 1.572l-3.852-1.231a1.134 1.134 0 0 1 -.745-1.392z"/><path d="m56.322 23.63-3.875-1.144a1.089 1.089 0 0 1 -.17-2.016l.711-.372a25.08 25.08 0 0 0 -21.135-15.09 2 2 0 0 1 -1.853-1.993 2.014 2.014 0 0 1 2.154-2.015 29.033 29.033 0 0 1 24.378 17.2l.841-.441a1.088 1.088 0 0 1 1.572 1.274l-1.231 3.852a1.134 1.134 0 0 1 -1.392.745z"/></g><path d="m27 36a.993.993 0 0 1 -.707-.293l-2-2a1 1 0 0 1 1.414-1.414l1.21 1.21 7.3-9.128a1 1 0 1 1 1.562 1.25l-8 10a1 1 0 0 1 -.725.373z" fill="#fff"/></svg>