<svg enable-background="new 0 0 64 64" viewBox="0 0 64 64" xmlns="http://www.w3.org/2000/svg"><g id="Layer_1"/><g id="Layer_2"/><g id="Layer_3"/><g id="Layer_4"/><g id="Layer_5"/><g id="Layer_6"/><g id="Layer_7"/><g id="Layer_8"/><g id="Layer_9"/><g id="Layer_10"/><g id="Layer_11"/><g id="Layer_12"/><g id="Layer_13"/><g id="Layer_14"/><g id="Layer_15"/><g id="Layer_16"/><g id="Layer_17"/><g id="Layer_18"/><g id="Layer_19"/><g id="Layer_20"/><g id="Layer_21"/><g id="Layer_22"/><g id="Layer_23"/><g id="Layer_24"/><g id="Layer_25"/><g id="Layer_26"/><g id="Layer_27"><g><g><path d="m28.8398438 26.9755859v-.8759766c0-.6582031.4619141-1.1943359 1.0297852-1.1943359h4.2602539c.5678711 0 1.0297852.5361328 1.0297852 1.1943359v.8759766z" fill="#282827"/><path d="m27.7114258 49.2509766v-22.2949219h8.5766602v22.2949219zm4.2880859-7.209961c-1.4760742 0-2.6767578 1.2011719-2.6767578 2.6777344s1.2006836 2.6777344 2.6767578 2.6777344c1.4765625 0 2.6777344-1.2011719 2.6777344-2.6777344s-1.2011719-2.6777344-2.6777344-2.6777344zm0-6.6142578c-1.4760742 0-2.6767578 1.2011719-2.6767578 2.6767578s1.2006836 2.6767578 2.6767578 2.6767578c1.4765625 0 2.6777344-1.2011719 2.6777344-2.6767578s-1.2011719-2.6767578-2.6777344-2.6767578zm0-6.6152344c-1.4760742 0-2.6767578 1.2011719-2.6767578 2.6767578s1.2006836 2.6767578 2.6767578 2.6767578c1.4765625 0 2.6777344-1.2011719 2.6777344-2.6767578s-1.2011719-2.6767578-2.6777344-2.6767578z" fill="#282827"/><path d="m31.9995117 34.2841797c-1.5419922 0-2.7958984-1.2539062-2.7958984-2.7958984s1.2539062-2.7958984 2.7958984-2.7958984c1.5424805 0 2.796875 1.2539062 2.796875 2.7958984s-1.2543945 2.7958984-2.796875 2.7958984z" fill="#ed1c24"/><path d="m28.99 49.231h6.02v2.233h-6.02z" fill="#282827"/><path d="m31.9995117 47.515625c-1.5419922 0-2.7958984-1.2548828-2.7958984-2.796875s1.2539062-2.796875 2.7958984-2.796875c1.5424805 0 2.796875 1.2548828 2.796875 2.796875s-1.2543945 2.796875-2.796875 2.796875z" fill="#00a14b"/><path d="m31.9995117 40.8994141c-1.5419922 0-2.7958984-1.2539062-2.7958984-2.7958984s1.2539062-2.7958984 2.7958984-2.7958984c1.5424805 0 2.796875 1.2539062 2.796875 2.7958984s-1.2543945 2.7958984-2.796875 2.7958984z" fill="#fed700"/><path d="m1.9829102 57.9902344 30.0166015-51.9902344 30.0175781 51.9902344zm30.0166015-43.5839844c-.0087891 0-.0146484.0019531-.0161133.0029297l-22.6044922 39.1689453 45.2504883-.0146484-22.6386718-39.1806641z" fill="#ed1c24"/><path d="m9.3530273 53.5830078 22.6464844-39.2246094 22.6469727 39.2246094zm19.65625-4.3515625v2.2236328l5.9902344-.0097656-.0097656-2.2138672h1.2885742l-.0097656-22.265625-.6186523.0097656h-.5097656v-.8759766c0-.6474609-.453125-1.1748047-1.0102539-1.1748047h-4.2602539c-.5571346 0-1.0102539.5273438-1.0102539 1.1748047v.8759766h-1.128418v22.265625l.7685547-.0097656z" fill="#fff"/></g><g><path d="m31.5664062 14.1279907-22.6292724 39.1951294c-.0893555.1542969-.0893555.3457031 0 .5s.2543335.25.4330444.25h45.2591553c.1787109 0 .343689-.0957031.4330444-.25s.0893555-.3457031 0-.5l-22.6297607-39.1951294c-.178711-.3085937-.6875-.3085937-.866211 0zm22.1967164 38.9451294h-43.5267334l21.7631226-37.6951294z"/><path d="m32.4326172 5.7695923c-.1787109-.3085938-.6875-.3085938-.8662109 0l-29.9993897 51.9607544c-.0893555.1542969-.0893555.3457031 0 .5s.2543945.25.4331055.25h59.9997559c.1787109 0 .34375-.0957031.4331055-.25s.0893555-.3457031 0-.5zm-29.5662842 51.7107544 29.1331787-50.4607544 29.1341553 50.4607544z"/><path d="m31.9995117 34.6748047c1.7573242 0 3.1875-1.4296875 3.1875-3.1865234s-1.4301758-3.1865234-3.1875-3.1865234c-1.7568359 0-3.1865234 1.4296875-3.1865234 3.1865234s1.4296875 3.1865234 3.1865234 3.1865234zm0-5.4726563c1.2612305 0 2.2871094 1.0253906 2.2871094 2.2861328s-1.0258789 2.2861328-2.2871094 2.2861328c-1.2607422 0-2.2861328-1.0253906-2.2861328-2.2861328s1.0253906-2.2861328 2.2861328-2.2861328z"/><path d="m31.9995117 34.9169922c-1.7568359 0-3.1865234 1.4296265-3.1865234 3.1864624s1.4296875 3.1865234 3.1865234 3.1865234c1.7573242 0 3.1875-1.4296875 3.1875-3.1865234s-1.4301758-3.1864624-3.1875-3.1864624zm0 5.4725952c-1.2607422 0-2.2861328-1.0253906-2.2861328-2.2861328s1.0253906-2.2860718 2.2861328-2.2860718c1.2612305 0 2.2871094 1.0253296 2.2871094 2.2860718s-1.0258789 2.2861328-2.2871094 2.2861328z"/><path d="m31.9995117 41.531189c-1.7568359 0-3.1865234 1.4296875-3.1865234 3.1875s1.4296875 3.1875 3.1865234 3.1875c1.7573242 0 3.1875-1.4296875 3.1875-3.1875s-1.4301758-3.1875-3.1875-3.1875zm0 5.4746093c-1.2607422 0-2.2861328-1.0263672-2.2861328-2.2871094s1.0253906-2.2871094 2.2861328-2.2871094c1.2612305 0 2.2871094 1.0263672 2.2871094 2.2871094s-1.0258789 2.2871094-2.2871094 2.2871094z"/><path d="m28.3496094 26.0996094v.3662109h-.628418c-.2763672 0-.5.2236328-.5.5v22.2753296c0 .2763672.2236328.5.5.5h.7783203v1.7138062c0 .2763672.2236328.5.5.5h6c.2763672 0 .5-.2236328.5-.5v-1.7138062h.7788086c.2763672 0 .5-.2236328.5-.5v-22.2753296c0-.2763672-.2236328-.5-.5-.5h-.628418v-.3662109c0-.9287109-.6816406-1.6845703-1.5200195-1.6845703h-4.2602539c-.8383789 0-1.5200195.7558593-1.5200195 1.6845703zm6.1499023 24.8554077h-5v-1.2138672h5zm.6503906-23.4794312c.0172119 0 .0317383-.0080566.0484619-.0097656h.5799561v21.2753296h-7.5571289v-21.2753296h.5799561c.0167236.001709.03125.0097656.0484619.0097656s.0317383-.0080566.0484619-.0097656h6.2033691c.0167237.001709.03125.0097656.0484619.0097656zm-.5-1.3759765v.3662109h-5.300293v-.3662109c0-.3710938.2382812-.6845703.5200195-.6845703h4.2602539c.2817384 0 .5200196.3134765.5200196.6845703z"/></g></g></g><g id="Layer_28"/><g id="Layer_29"/><g id="Layer_30"/><g id="Layer_31"/><g id="Layer_32"/><g id="Layer_33"/></svg>